# xmcd
#
# Track frame offsets: 
#        150
#        19425
#        41335
#
# Disc length: 965 seconds
#
# Revision: 0
# Processed by: cddbd v1.5.2PL0 Copyright (c) Steve Scherf et al.
# Submitted via: ExactAudioCopy v0.99pb1
#
DISCID=1d03c303
DTITLE=Tony! Toni! Toné! - The Blues
DYEAR=1990
DGENRE=R&B
TTITLE0=The Blues (The Mix)
TTITLE1=Jo Jo
TTITLE2=The Blues (Greezy Drums Mix)
EXTD=
EXTT0=
EXTT1=
EXTT2=
PLAYORDER=
